<svg width="628" height="628" viewBox="0 0 628 628" fill="none" xmlns="http://www.w3.org/2000/svg">
<rect width="628" height="628" fill="#faf9f6"/>
<path d="M190.776 410.418L190.598 332.825H200.896L298.908 223.273H374.014L253.453 357.506H240.136L190.776 410.418ZM132.182 496V132.364H196.457V496H132.182ZM303.347 496L214.568 371.888L257.892 326.611L380.229 496H303.347Z" fill="#14130f"/>
<path d="M456.445 499.906C445.673 499.906 436.44 496.118 428.746 488.543C421.052 480.967 417.264 471.734 417.382 460.844C417.264 450.19 421.052 441.076 428.746 433.5C436.44 425.924 445.673 422.136 456.445 422.136C466.862 422.136 475.917 425.924 483.611 433.5C491.424 441.076 495.389 450.19 495.507 460.844C495.389 468.064 493.495 474.634 489.826 480.553C486.275 486.471 481.54 491.206 475.621 494.757C469.821 498.19 463.429 499.906 456.445 499.906Z" fill="#5B3DF5"/>
</svg>
